<svg width="105" height="71" viewBox="0 0 105 71" fill="none" xmlns="http://www.w3.org/2000/svg">
<g filter="url(#filter0_d_11_12)">
<path d="M73.5 2C90.8906 2 105 16.1094 105 33.5C105 50.8906 90.8906 65 73.5 65H31.5C14.1094 65 0 50.8906 0 33.5C0 16.1094 14.1094 2 31.5 2H73.5ZM31.5 20.375C29.318 20.375 27.5625 22.1305 27.5625 24.3125V29.5625H22.3125C20.1305 29.5625 18.375 31.318 18.375 33.5C18.375 35.682 20.1305 37.4375 22.3125 37.4375H27.5625V42.6875C27.5625 44.8695 29.318 46.625 31.5 46.625C33.682 46.625 35.4375 44.8695 35.4375 42.6875V37.4375H40.6875C42.8695 37.4375 44.625 35.682 44.625 33.5C44.625 31.318 42.8695 29.5625 40.6875 29.5625H35.4375V24.3125C35.4375 22.1305 33.682 20.375 31.5 20.375ZM70.875 36.125C67.9711 36.125 65.625 38.4711 65.625 41.375C65.625 44.2789 67.9711 46.625 70.875 46.625C73.7789 46.625 76.125 44.2789 76.125 41.375C76.125 38.4711 73.7789 36.125 70.875 36.125ZM81.375 20.375C78.4711 20.375 76.125 22.7211 76.125 25.625C76.125 28.5289 78.4711 30.875 81.375 30.875C84.2789 30.875 86.625 28.5289 86.625 25.625C86.625 22.7211 84.2789 20.375 81.375 20.375Z" fill="url(#paint0_linear_11_12)"/>
</g>
<defs>
<filter id="filter0_d_11_12" x="-4" y="0" width="113" height="71" filterUnits="userSpaceOnUse" color-interpolation-filters="sRGB">
<feFlood flood-opacity="0" result="BackgroundImageFix"/>
<feColorMatrix in="SourceAlpha" type="matrix" values="0 0 0 0 0 0 0 0 0 0 0 0 0 0 0 0 0 0 127 0" result="hardAlpha"/>
<feOffset dy="2"/>
<feGaussianBlur stdDeviation="2"/>
<feComposite in2="hardAlpha" operator="out"/>
<feColorMatrix type="matrix" values="0 0 0 0 0 0 0 0 0 0 0 0 0 0 0 0 0 0 0.25 0"/>
<feBlend mode="normal" in2="BackgroundImageFix" result="effect1_dropShadow_11_12"/>
<feBlend mode="normal" in="SourceGraphic" in2="effect1_dropShadow_11_12" result="shape"/>
</filter>
<linearGradient id="paint0_linear_11_12" x1="0" y1="33.5" x2="105" y2="33.5" gradientUnits="userSpaceOnUse">
<stop stop-color="#FD6F2D"/>
<stop offset="1" stop-color="#FF122E"/>
</linearGradient>
</defs>
</svg>
